<mxfile host="app.diagrams.net" modified="2021-11-19T06:29:43.234Z" agent="5.0 (Macintosh; Intel Mac OS X 10_15_7) AppleWebKit/537.36 (KHTML, like Gecko) Chrome/95.0.4638.69 Safari/537.36" etag="5vzApeg5Z2PaM1uZP1ST" version="14.9.2" type="github">
  <diagram id="2VviP5SayQQpKkSF9eWY" name="Page-1">
    <mxGraphModel dx="1554" dy="768" grid="0" gridSize="10" guides="1" tooltips="1" connect="1" arrows="1" fold="1" page="1" pageScale="1" pageWidth="850" pageHeight="1100" math="0" shadow="0">
      <root>
        <mxCell id="0" />
        <mxCell id="1" parent="0" />
        <mxCell id="XG_VNpYCxs_xArBESZV_-16" value="" style="edgeStyle=orthogonalEdgeStyle;rounded=0;orthogonalLoop=1;jettySize=auto;html=1;" parent="1" source="XG_VNpYCxs_xArBESZV_-1" target="XG_VNpYCxs_xArBESZV_-15" edge="1">
          <mxGeometry relative="1" as="geometry" />
        </mxCell>
        <mxCell id="XG_VNpYCxs_xArBESZV_-47" value="" style="edgeStyle=orthogonalEdgeStyle;rounded=0;orthogonalLoop=1;jettySize=auto;html=1;" parent="1" source="XG_VNpYCxs_xArBESZV_-1" target="XG_VNpYCxs_xArBESZV_-4" edge="1">
          <mxGeometry relative="1" as="geometry" />
        </mxCell>
        <mxCell id="XG_VNpYCxs_xArBESZV_-1" value="获取分布式锁" style="ellipse;whiteSpace=wrap;html=1;fillColor=#e1d5e7;strokeColor=#9673a6;" parent="1" vertex="1">
          <mxGeometry x="348" y="318.5" width="115" height="67" as="geometry" />
        </mxCell>
        <mxCell id="XG_VNpYCxs_xArBESZV_-10" value="" style="edgeStyle=orthogonalEdgeStyle;rounded=0;orthogonalLoop=1;jettySize=auto;html=1;" parent="1" source="XG_VNpYCxs_xArBESZV_-2" target="XG_VNpYCxs_xArBESZV_-9" edge="1">
          <mxGeometry relative="1" as="geometry" />
        </mxCell>
        <mxCell id="XG_VNpYCxs_xArBESZV_-50" value="no" style="edgeLabel;html=1;align=center;verticalAlign=middle;resizable=0;points=[];" parent="XG_VNpYCxs_xArBESZV_-10" vertex="1" connectable="0">
          <mxGeometry x="-0.1927" y="2" relative="1" as="geometry">
            <mxPoint as="offset" />
          </mxGeometry>
        </mxCell>
        <mxCell id="XG_VNpYCxs_xArBESZV_-49" value="" style="edgeStyle=orthogonalEdgeStyle;rounded=0;orthogonalLoop=1;jettySize=auto;html=1;" parent="1" source="XG_VNpYCxs_xArBESZV_-2" target="XG_VNpYCxs_xArBESZV_-12" edge="1">
          <mxGeometry relative="1" as="geometry" />
        </mxCell>
        <mxCell id="XG_VNpYCxs_xArBESZV_-51" value="yes" style="edgeLabel;html=1;align=center;verticalAlign=middle;resizable=0;points=[];" parent="XG_VNpYCxs_xArBESZV_-49" vertex="1" connectable="0">
          <mxGeometry x="-0.1489" relative="1" as="geometry">
            <mxPoint as="offset" />
          </mxGeometry>
        </mxCell>
        <mxCell id="XG_VNpYCxs_xArBESZV_-2" value="余额是否足够" style="rhombus;whiteSpace=wrap;html=1;" parent="1" vertex="1">
          <mxGeometry x="347" y="493" width="116" height="80" as="geometry" />
        </mxCell>
        <mxCell id="XG_VNpYCxs_xArBESZV_-46" value="" style="edgeStyle=orthogonalEdgeStyle;rounded=0;orthogonalLoop=1;jettySize=auto;html=1;" parent="1" source="XG_VNpYCxs_xArBESZV_-3" target="XG_VNpYCxs_xArBESZV_-1" edge="1">
          <mxGeometry relative="1" as="geometry" />
        </mxCell>
        <mxCell id="XG_VNpYCxs_xArBESZV_-3" value="消费金额计算" style="rounded=1;whiteSpace=wrap;html=1;" parent="1" vertex="1">
          <mxGeometry x="345.5" y="217" width="120" height="43" as="geometry" />
        </mxCell>
        <mxCell id="XG_VNpYCxs_xArBESZV_-48" value="" style="edgeStyle=orthogonalEdgeStyle;rounded=0;orthogonalLoop=1;jettySize=auto;html=1;" parent="1" source="XG_VNpYCxs_xArBESZV_-4" target="XG_VNpYCxs_xArBESZV_-2" edge="1">
          <mxGeometry relative="1" as="geometry" />
        </mxCell>
        <mxCell id="XG_VNpYCxs_xArBESZV_-4" value="&lt;span&gt;余额获取&lt;/span&gt;" style="whiteSpace=wrap;html=1;rounded=1;" parent="1" vertex="1">
          <mxGeometry x="345" y="415" width="120" height="39" as="geometry" />
        </mxCell>
        <mxCell id="XG_VNpYCxs_xArBESZV_-6" value="扣除优惠券" style="whiteSpace=wrap;html=1;rounded=1;arcSize=50;align=center;verticalAlign=middle;strokeWidth=1;autosize=1;spacing=4;treeFolding=1;treeMoving=1;newEdgeStyle={&quot;edgeStyle&quot;:&quot;entityRelationEdgeStyle&quot;,&quot;startArrow&quot;:&quot;none&quot;,&quot;endArrow&quot;:&quot;none&quot;,&quot;segment&quot;:10,&quot;curved&quot;:1};gradientColor=#ea6b66;fillColor=#f8cecc;strokeColor=#b85450;" parent="1" vertex="1">
          <mxGeometry x="520" y="174" width="113" height="29" as="geometry" />
        </mxCell>
        <mxCell id="XG_VNpYCxs_xArBESZV_-7" value="" style="edgeStyle=entityRelationEdgeStyle;startArrow=none;endArrow=none;segment=10;curved=1;" parent="1" target="XG_VNpYCxs_xArBESZV_-6" edge="1">
          <mxGeometry relative="1" as="geometry">
            <mxPoint x="465" y="239" as="sourcePoint" />
          </mxGeometry>
        </mxCell>
        <mxCell id="XG_VNpYCxs_xArBESZV_-31" style="edgeStyle=orthogonalEdgeStyle;rounded=0;orthogonalLoop=1;jettySize=auto;html=1;entryX=1;entryY=0.5;entryDx=0;entryDy=0;entryPerimeter=0;" parent="1" source="XG_VNpYCxs_xArBESZV_-9" target="XG_VNpYCxs_xArBESZV_-27" edge="1">
          <mxGeometry relative="1" as="geometry">
            <Array as="points">
              <mxPoint x="717" y="1081" />
            </Array>
          </mxGeometry>
        </mxCell>
        <mxCell id="XG_VNpYCxs_xArBESZV_-9" value="拒绝添加" style="whiteSpace=wrap;html=1;" parent="1" vertex="1">
          <mxGeometry x="681" y="503" width="120" height="60" as="geometry" />
        </mxCell>
        <mxCell id="XG_VNpYCxs_xArBESZV_-62" style="edgeStyle=orthogonalEdgeStyle;rounded=0;orthogonalLoop=1;jettySize=auto;html=1;entryX=0.5;entryY=0;entryDx=0;entryDy=0;" parent="1" source="XG_VNpYCxs_xArBESZV_-12" target="XG_VNpYCxs_xArBESZV_-36" edge="1">
          <mxGeometry relative="1" as="geometry" />
        </mxCell>
        <mxCell id="XG_VNpYCxs_xArBESZV_-12" value="金额冻结" style="whiteSpace=wrap;html=1;" parent="1" vertex="1">
          <mxGeometry x="345" y="620" width="120" height="60" as="geometry" />
        </mxCell>
        <mxCell id="XG_VNpYCxs_xArBESZV_-17" value="" style="edgeStyle=orthogonalEdgeStyle;rounded=0;orthogonalLoop=1;jettySize=auto;html=1;" parent="1" source="XG_VNpYCxs_xArBESZV_-15" target="XG_VNpYCxs_xArBESZV_-1" edge="1">
          <mxGeometry relative="1" as="geometry" />
        </mxCell>
        <mxCell id="XG_VNpYCxs_xArBESZV_-18" value="fail" style="edgeLabel;html=1;align=center;verticalAlign=middle;resizable=0;points=[];" parent="XG_VNpYCxs_xArBESZV_-17" vertex="1" connectable="0">
          <mxGeometry x="-0.125" y="3" relative="1" as="geometry">
            <mxPoint as="offset" />
          </mxGeometry>
        </mxCell>
        <mxCell id="XG_VNpYCxs_xArBESZV_-19" style="edgeStyle=orthogonalEdgeStyle;rounded=0;orthogonalLoop=1;jettySize=auto;html=1;entryX=0;entryY=0;entryDx=0;entryDy=0;" parent="1" source="XG_VNpYCxs_xArBESZV_-15" target="XG_VNpYCxs_xArBESZV_-1" edge="1">
          <mxGeometry relative="1" as="geometry">
            <mxPoint x="208" y="285" as="targetPoint" />
            <Array as="points">
              <mxPoint x="208" y="299" />
              <mxPoint x="365" y="299" />
            </Array>
          </mxGeometry>
        </mxCell>
        <mxCell id="XG_VNpYCxs_xArBESZV_-15" value="等待300ms重试&lt;br&gt;总体重试60000ms" style="whiteSpace=wrap;html=1;fillColor=#d5e8d4;strokeColor=#82b366;" parent="1" vertex="1">
          <mxGeometry x="151" y="318.5" width="120" height="60" as="geometry" />
        </mxCell>
        <mxCell id="XG_VNpYCxs_xArBESZV_-20" value="retry" style="text;html=1;align=center;verticalAlign=middle;resizable=0;points=[];autosize=1;strokeColor=none;" parent="1" vertex="1">
          <mxGeometry x="269" y="284" width="34" height="18" as="geometry" />
        </mxCell>
        <mxCell id="XG_VNpYCxs_xArBESZV_-21" value="冻结时间15s" style="whiteSpace=wrap;html=1;rounded=1;arcSize=50;align=center;verticalAlign=middle;strokeWidth=1;autosize=1;spacing=4;treeFolding=1;treeMoving=1;newEdgeStyle={&quot;edgeStyle&quot;:&quot;entityRelationEdgeStyle&quot;,&quot;startArrow&quot;:&quot;none&quot;,&quot;endArrow&quot;:&quot;none&quot;,&quot;segment&quot;:10,&quot;curved&quot;:1};fillColor=#fff2cc;strokeColor=#d6b656;" parent="1" vertex="1">
          <mxGeometry x="536" y="615" width="102" height="26" as="geometry" />
        </mxCell>
        <mxCell id="XG_VNpYCxs_xArBESZV_-22" value="" style="edgeStyle=entityRelationEdgeStyle;startArrow=none;endArrow=none;segment=10;curved=1;" parent="1" target="XG_VNpYCxs_xArBESZV_-21" edge="1">
          <mxGeometry relative="1" as="geometry">
            <mxPoint x="465" y="663" as="sourcePoint" />
          </mxGeometry>
        </mxCell>
        <mxCell id="XG_VNpYCxs_xArBESZV_-26" value="" style="edgeStyle=orthogonalEdgeStyle;rounded=0;orthogonalLoop=1;jettySize=auto;html=1;" parent="1" source="XG_VNpYCxs_xArBESZV_-23" target="XG_VNpYCxs_xArBESZV_-25" edge="1">
          <mxGeometry relative="1" as="geometry" />
        </mxCell>
        <mxCell id="XG_VNpYCxs_xArBESZV_-23" value="扣费：额度-&amp;gt;金额" style="whiteSpace=wrap;html=1;" parent="1" vertex="1">
          <mxGeometry x="345" y="892" width="120" height="38" as="geometry" />
        </mxCell>
        <mxCell id="XG_VNpYCxs_xArBESZV_-28" style="edgeStyle=orthogonalEdgeStyle;rounded=0;orthogonalLoop=1;jettySize=auto;html=1;entryX=0.5;entryY=0;entryDx=0;entryDy=0;entryPerimeter=0;" parent="1" source="XG_VNpYCxs_xArBESZV_-25" target="XG_VNpYCxs_xArBESZV_-27" edge="1">
          <mxGeometry relative="1" as="geometry" />
        </mxCell>
        <mxCell id="XG_VNpYCxs_xArBESZV_-25" value="删除冻结金额及记录" style="whiteSpace=wrap;html=1;" parent="1" vertex="1">
          <mxGeometry x="345" y="962" width="120" height="43" as="geometry" />
        </mxCell>
        <mxCell id="XG_VNpYCxs_xArBESZV_-27" value="结束" style="strokeWidth=2;html=1;shape=mxgraph.flowchart.terminator;whiteSpace=wrap;gradientColor=#7ea6e0;fillColor=#dae8fc;strokeColor=#6c8ebf;" parent="1" vertex="1">
          <mxGeometry x="355" y="1051" width="100" height="60" as="geometry" />
        </mxCell>
        <mxCell id="XG_VNpYCxs_xArBESZV_-63" style="edgeStyle=orthogonalEdgeStyle;rounded=0;orthogonalLoop=1;jettySize=auto;html=1;entryX=0.5;entryY=0;entryDx=0;entryDy=0;" parent="1" source="XG_VNpYCxs_xArBESZV_-36" target="XG_VNpYCxs_xArBESZV_-53" edge="1">
          <mxGeometry relative="1" as="geometry" />
        </mxCell>
        <mxCell id="XG_VNpYCxs_xArBESZV_-36" value="释放锁" style="ellipse;whiteSpace=wrap;html=1;fillColor=#e1d5e7;strokeColor=#9673a6;" parent="1" vertex="1">
          <mxGeometry x="347" y="712" width="115" height="48" as="geometry" />
        </mxCell>
        <mxCell id="XG_VNpYCxs_xArBESZV_-39" value="扣费与删除冻结金额进行事务控制" style="whiteSpace=wrap;html=1;shape=mxgraph.basic.roundRectCallout;dx=30;dy=15;size=5;boundedLbl=1;" parent="1" vertex="1">
          <mxGeometry x="518" y="873" width="100" height="54" as="geometry" />
        </mxCell>
        <mxCell id="XG_VNpYCxs_xArBESZV_-42" value="" style="endArrow=none;dashed=1;html=1;dashPattern=1 3;strokeWidth=2;" parent="1" edge="1">
          <mxGeometry width="50" height="50" relative="1" as="geometry">
            <mxPoint x="465" y="986" as="sourcePoint" />
            <mxPoint x="535" y="928" as="targetPoint" />
          </mxGeometry>
        </mxCell>
        <mxCell id="XG_VNpYCxs_xArBESZV_-43" value="" style="endArrow=none;dashed=1;html=1;dashPattern=1 3;strokeWidth=2;exitX=1;exitY=0.25;exitDx=0;exitDy=0;" parent="1" source="XG_VNpYCxs_xArBESZV_-23" target="XG_VNpYCxs_xArBESZV_-39" edge="1">
          <mxGeometry width="50" height="50" relative="1" as="geometry">
            <mxPoint x="360" y="906" as="sourcePoint" />
            <mxPoint x="410" y="856" as="targetPoint" />
          </mxGeometry>
        </mxCell>
        <mxCell id="XG_VNpYCxs_xArBESZV_-45" style="edgeStyle=orthogonalEdgeStyle;rounded=0;orthogonalLoop=1;jettySize=auto;html=1;entryX=0.5;entryY=0;entryDx=0;entryDy=0;" parent="1" source="XG_VNpYCxs_xArBESZV_-44" target="XG_VNpYCxs_xArBESZV_-3" edge="1">
          <mxGeometry relative="1" as="geometry" />
        </mxCell>
        <mxCell id="XG_VNpYCxs_xArBESZV_-44" value="开始消费" style="strokeWidth=2;html=1;shape=mxgraph.flowchart.terminator;whiteSpace=wrap;gradientColor=#7ea6e0;fillColor=#dae8fc;strokeColor=#6c8ebf;" parent="1" vertex="1">
          <mxGeometry x="356" y="101" width="100" height="60" as="geometry" />
        </mxCell>
        <mxCell id="XG_VNpYCxs_xArBESZV_-57" value="" style="edgeStyle=orthogonalEdgeStyle;rounded=0;orthogonalLoop=1;jettySize=auto;html=1;" parent="1" source="XG_VNpYCxs_xArBESZV_-53" target="XG_VNpYCxs_xArBESZV_-56" edge="1">
          <mxGeometry relative="1" as="geometry" />
        </mxCell>
        <mxCell id="XG_VNpYCxs_xArBESZV_-58" value="失败" style="edgeLabel;html=1;align=center;verticalAlign=middle;resizable=0;points=[];" parent="XG_VNpYCxs_xArBESZV_-57" vertex="1" connectable="0">
          <mxGeometry x="-0.125" y="4" relative="1" as="geometry">
            <mxPoint as="offset" />
          </mxGeometry>
        </mxCell>
        <mxCell id="XG_VNpYCxs_xArBESZV_-64" style="edgeStyle=orthogonalEdgeStyle;rounded=0;orthogonalLoop=1;jettySize=auto;html=1;entryX=0.5;entryY=0;entryDx=0;entryDy=0;" parent="1" source="XG_VNpYCxs_xArBESZV_-53" target="XG_VNpYCxs_xArBESZV_-23" edge="1">
          <mxGeometry relative="1" as="geometry" />
        </mxCell>
        <mxCell id="XG_VNpYCxs_xArBESZV_-53" value="处理业务逻辑&lt;br&gt;有必要可修正冻结金额" style="whiteSpace=wrap;html=1;" parent="1" vertex="1">
          <mxGeometry x="344.5" y="791" width="120" height="60" as="geometry" />
        </mxCell>
        <mxCell id="XG_VNpYCxs_xArBESZV_-61" value="" style="edgeStyle=orthogonalEdgeStyle;rounded=0;orthogonalLoop=1;jettySize=auto;html=1;" parent="1" source="XG_VNpYCxs_xArBESZV_-56" edge="1">
          <mxGeometry relative="1" as="geometry">
            <mxPoint x="648" y="1080" as="targetPoint" />
            <Array as="points">
              <mxPoint x="655" y="1080" />
            </Array>
          </mxGeometry>
        </mxCell>
        <mxCell id="XG_VNpYCxs_xArBESZV_-56" value="删除冻结金额与记录" style="whiteSpace=wrap;html=1;" parent="1" vertex="1">
          <mxGeometry x="608" y="791" width="93" height="60" as="geometry" />
        </mxCell>
      </root>
    </mxGraphModel>
  </diagram>
</mxfile>
